<?xml version="1.0" standalone="no"?>
<!DOCTYPE svg PUBLIC "-//W3C//DTD SVG 20010904//EN"
 "http://www.w3.org/TR/2001/REC-SVG-20010904/DTD/svg10.dtd">
<svg version="1.0" xmlns="http://www.w3.org/2000/svg"
 width="382.000000pt" height="382.000000pt" viewBox="0 0 382.000000 382.000000"
 preserveAspectRatio="xMidYMid meet">
<metadata>
Created by potrace 1.11, written by Peter Selinger 2001-2013
</metadata>
<g transform="translate(0.000000,382.000000) scale(0.100000,-0.100000)"
fill="#000000" stroke="none">
<path d="M0 1910 l0 -1910 1910 0 1910 0 0 1910 0 1910 -1910 0 -1910 0 0
-1910z m1635 1657 c149 -36 280 -119 358 -229 91 -128 127 -264 127 -484 0
-141 -1 -146 -25 -169 l-24 -25 -220 0 c-217 0 -220 0 -247 24 -27 23 -28 27
-34 157 -7 156 -21 196 -83 237 l-40 27 -238 3 c-150 2 -252 -1 -278 -8 -56
-15 -96 -52 -118 -108 -17 -44 -18 -95 -18 -797 l0 -750 26 -50 c19 -38 36
-55 74 -75 49 -25 52 -25 290 -25 231 0 242 1 287 23 38 19 52 34 73 76 25 51
25 55 23 257 l-3 204 -173 5 c-228 7 -212 -11 -212 240 0 170 2 190 19 211
l19 24 426 0 c298 0 428 -3 436 -11 8 -8 -17 -59 -93 -190 -57 -98 -184 -318
-282 -489 -98 -170 -233 -404 -300 -520 -67 -116 -184 -318 -260 -450 -213
-371 -239 -414 -242 -412 -1 2 49 123 112 270 63 147 115 269 115 272 0 3 -51
5 -112 5 -276 1 -455 59 -587 190 -71 70 -115 144 -153 255 l-23 70 -3 844
c-3 946 -4 928 67 1076 85 179 243 292 461 330 115 21 760 14 855 -8z m1269
-64 c-9 -21 -61 -142 -115 -269 -54 -128 -99 -234 -99 -238 0 -3 49 -6 108 -6
353 0 570 -109 681 -344 66 -137 71 -179 71 -566 0 -386 -5 -427 -71 -568 -52
-112 -151 -213 -259 -265 -142 -67 -155 -69 -573 -76 -320 -5 -379 -8 -387
-21 -6 -9 -10 -195 -10 -452 0 -420 -1 -439 -19 -457 -29 -29 -67 -33 -284
-29 -189 3 -197 4 -219 26 l-23 23 -3 589 -3 589 239 413 c131 227 254 440
273 473 l34 60 3 -354 c1 -241 6 -359 13 -368 18 -21 560 -19 620 2 57 20 84
47 106 104 16 40 18 81 18 311 0 295 -7 335 -66 384 -48 41 -89 46 -356 46
-167 0 -253 4 -253 10 0 6 58 111 128 233 363 629 455 787 458 787 2 0 -4 -17
-12 -37z"/>
</g>
</svg>
